<mxfile host="app.diagrams.net" modified="2023-02-13T01:15:51.824Z" agent="5.0 (Windows NT 10.0; Win64; x64) AppleWebKit/537.36 (KHTML, like Gecko) Chrome/109.0.0.0 Safari/537.36" etag="luMQ4E0UyW2XmErw_5GN" version="20.8.20" type="github">
  <diagram name="Page-1" id="8rtM6m07vtsyfEBvqDKu">
    <mxGraphModel dx="2284" dy="796" grid="1" gridSize="10" guides="1" tooltips="1" connect="1" arrows="1" fold="1" page="1" pageScale="1" pageWidth="850" pageHeight="1100" math="0" shadow="0">
      <root>
        <mxCell id="0" />
        <mxCell id="1" parent="0" />
        <object placeholders="1" c4Type="Database" c4Container="Container" c4Technology="MySQL" c4Description="MySQL Database Schema" label="&lt;font style=&quot;font-size: 16px&quot;&gt;&lt;b&gt;%c4Type%&lt;/b&gt;&lt;/font&gt;&lt;div&gt;[%c4Container%:&amp;nbsp;%c4Technology%]&lt;/div&gt;&lt;br&gt;&lt;div&gt;&lt;font style=&quot;font-size: 11px&quot;&gt;&lt;font color=&quot;#E6E6E6&quot;&gt;%c4Description%&lt;/font&gt;&lt;/div&gt;" id="fI5Uz8TSLdIrgGUn4hyG-3">
          <mxCell style="shape=cylinder3;size=15;whiteSpace=wrap;html=1;boundedLbl=1;rounded=0;labelBackgroundColor=none;fillColor=#23A2D9;fontSize=12;fontColor=#ffffff;align=center;strokeColor=#0E7DAD;metaEdit=1;points=[[0.5,0,0],[1,0.25,0],[1,0.5,0],[1,0.75,0],[0.5,1,0],[0,0.75,0],[0,0.5,0],[0,0.25,0]];resizable=0;" parent="1" vertex="1">
            <mxGeometry x="110" y="970" width="240" height="120" as="geometry" />
          </mxCell>
        </object>
        <mxCell id="fI5Uz8TSLdIrgGUn4hyG-4" value="" style="edgeStyle=orthogonalEdgeStyle;rounded=0;orthogonalLoop=1;jettySize=auto;html=1;" parent="1" source="fI5Uz8TSLdIrgGUn4hyG-5" target="fI5Uz8TSLdIrgGUn4hyG-19" edge="1">
          <mxGeometry relative="1" as="geometry" />
        </mxCell>
        <object placeholders="1" c4Type="Single-Page Application" c4Container="Container" c4Technology="Angular" c4Description="Người dùng tương tác với giao diện web browser này" label="&lt;font style=&quot;font-size: 16px&quot;&gt;&lt;b&gt;%c4Type%&lt;/b&gt;&lt;/font&gt;&lt;div&gt;[%c4Container%:&amp;nbsp;%c4Technology%]&lt;/div&gt;&lt;br&gt;&lt;div&gt;&lt;font style=&quot;font-size: 11px&quot;&gt;&lt;font color=&quot;#E6E6E6&quot;&gt;%c4Description%&lt;/font&gt;&lt;/div&gt;" id="fI5Uz8TSLdIrgGUn4hyG-5">
          <mxCell style="shape=mxgraph.c4.webBrowserContainer2;whiteSpace=wrap;html=1;boundedLbl=1;rounded=0;labelBackgroundColor=none;strokeColor=#118ACD;fillColor=#23A2D9;strokeColor=#118ACD;strokeColor2=#0E7DAD;fontSize=12;fontColor=#ffffff;align=center;metaEdit=1;points=[[0.5,0,0],[1,0.25,0],[1,0.5,0],[1,0.75,0],[0.5,1,0],[0,0.75,0],[0,0.5,0],[0,0.25,0]];resizable=0;" parent="1" vertex="1">
            <mxGeometry x="110" y="590" width="240" height="160" as="geometry" />
          </mxCell>
        </object>
        <mxCell id="fI5Uz8TSLdIrgGUn4hyG-6" style="edgeStyle=orthogonalEdgeStyle;rounded=0;orthogonalLoop=1;jettySize=auto;html=1;" parent="1" source="fI5Uz8TSLdIrgGUn4hyG-19" target="fI5Uz8TSLdIrgGUn4hyG-3" edge="1">
          <mxGeometry relative="1" as="geometry">
            <Array as="points">
              <mxPoint x="220" y="970" />
              <mxPoint x="220" y="970" />
            </Array>
            <mxPoint x="470" y="1030" as="targetPoint" />
          </mxGeometry>
        </mxCell>
        <mxCell id="fI5Uz8TSLdIrgGUn4hyG-7" value="Cập nhật thông tin dịch vụ&lt;br&gt;[Jdbc]" style="edgeLabel;html=1;align=center;verticalAlign=middle;resizable=0;points=[];" parent="fI5Uz8TSLdIrgGUn4hyG-6" vertex="1" connectable="0">
          <mxGeometry x="0.5659" relative="1" as="geometry">
            <mxPoint x="10" y="-19" as="offset" />
          </mxGeometry>
        </mxCell>
        <mxCell id="fI5Uz8TSLdIrgGUn4hyG-8" style="edgeStyle=orthogonalEdgeStyle;rounded=0;orthogonalLoop=1;jettySize=auto;html=1;" parent="1" source="fI5Uz8TSLdIrgGUn4hyG-19" target="fI5Uz8TSLdIrgGUn4hyG-50" edge="1">
          <mxGeometry relative="1" as="geometry">
            <Array as="points">
              <mxPoint x="50" y="850" />
              <mxPoint x="50" y="850" />
            </Array>
          </mxGeometry>
        </mxCell>
        <mxCell id="fI5Uz8TSLdIrgGUn4hyG-9" value="Giao tiếp, gọi API, messaging&lt;br&gt;[SDK, API]" style="edgeLabel;html=1;align=center;verticalAlign=middle;resizable=0;points=[];" parent="fI5Uz8TSLdIrgGUn4hyG-8" vertex="1" connectable="0">
          <mxGeometry x="0.5231" y="1" relative="1" as="geometry">
            <mxPoint x="47" y="-29" as="offset" />
          </mxGeometry>
        </mxCell>
        <object placeholders="1" c4Name="API Application" c4Type="Container" c4Technology="SpringBoot" c4Description="Cung cấp API để web application gọi đến " label="&lt;font style=&quot;font-size: 16px&quot;&gt;&lt;b&gt;%c4Name%&lt;/b&gt;&lt;/font&gt;&lt;div&gt;[%c4Type%: %c4Technology%]&lt;/div&gt;&lt;br&gt;&lt;div&gt;&lt;font style=&quot;font-size: 11px&quot;&gt;&lt;font color=&quot;#E6E6E6&quot;&gt;%c4Description%&lt;/font&gt;&lt;/div&gt;" id="fI5Uz8TSLdIrgGUn4hyG-19">
          <mxCell style="rounded=1;whiteSpace=wrap;html=1;fontSize=11;labelBackgroundColor=none;fillColor=#23A2D9;fontColor=#ffffff;align=center;arcSize=10;strokeColor=#0E7DAD;metaEdit=1;resizable=0;points=[[0.25,0,0],[0.5,0,0],[0.75,0,0],[1,0.25,0],[1,0.5,0],[1,0.75,0],[0.75,1,0],[0.5,1,0],[0.25,1,0],[0,0.75,0],[0,0.5,0],[0,0.25,0]];" parent="1" vertex="1">
            <mxGeometry x="110" y="800" width="240" height="120" as="geometry" />
          </mxCell>
        </object>
        <mxCell id="fI5Uz8TSLdIrgGUn4hyG-20" style="edgeStyle=orthogonalEdgeStyle;rounded=0;orthogonalLoop=1;jettySize=auto;html=1;" parent="1" source="fI5Uz8TSLdIrgGUn4hyG-36" edge="1">
          <mxGeometry relative="1" as="geometry">
            <Array as="points">
              <mxPoint x="229.95" y="480" />
            </Array>
            <mxPoint x="230" y="590" as="targetPoint" />
          </mxGeometry>
        </mxCell>
        <mxCell id="fI5Uz8TSLdIrgGUn4hyG-21" value="Truy cập&lt;br style=&quot;border-color: var(--border-color);&quot;&gt;[UI]" style="edgeLabel;html=1;align=center;verticalAlign=middle;resizable=0;points=[];" parent="fI5Uz8TSLdIrgGUn4hyG-20" vertex="1" connectable="0">
          <mxGeometry x="-0.2875" y="-2" relative="1" as="geometry">
            <mxPoint x="18" y="2" as="offset" />
          </mxGeometry>
        </mxCell>
        <object placeholders="1" c4Name="Người dùng" c4Type="Người dùng" c4Description="Người dùng thao tác với hệ thống" label="&lt;font style=&quot;font-size: 16px&quot;&gt;&lt;b&gt;%c4Name%&lt;/b&gt;&lt;/font&gt;&lt;div&gt;[%c4Type%]&lt;/div&gt;&lt;br&gt;&lt;div&gt;&lt;font style=&quot;font-size: 11px&quot;&gt;&lt;font color=&quot;#cccccc&quot;&gt;%c4Description%&lt;/font&gt;&lt;/div&gt;" id="fI5Uz8TSLdIrgGUn4hyG-36">
          <mxCell style="html=1;fontSize=11;dashed=0;whiteSpace=wrap;fillColor=#083F75;strokeColor=#06315C;fontColor=#ffffff;shape=mxgraph.c4.person2;align=center;metaEdit=1;points=[[0.5,0,0],[1,0.5,0],[1,0.75,0],[0.75,1,0],[0.5,1,0],[0.25,1,0],[0,0.75,0],[0,0.5,0]];resizable=0;" parent="1" vertex="1">
            <mxGeometry x="140" y="340" width="200" height="180" as="geometry" />
          </mxCell>
        </object>
        <object placeholders="1" c4Name="Services" c4Type="SystemScopeBoundary" c4Application="Software System" label="&lt;font style=&quot;font-size: 16px&quot;&gt;&lt;b&gt;&lt;div style=&quot;text-align: left&quot;&gt;%c4Name%&lt;/div&gt;&lt;/b&gt;&lt;/font&gt;&lt;div style=&quot;text-align: left&quot;&gt;[%c4Application%]&lt;/div&gt;" id="fI5Uz8TSLdIrgGUn4hyG-37">
          <mxCell style="rounded=1;fontSize=11;whiteSpace=wrap;html=1;dashed=1;arcSize=20;fillColor=none;strokeColor=#666666;fontColor=#333333;labelBackgroundColor=none;align=left;verticalAlign=bottom;labelBorderColor=none;spacingTop=0;spacing=10;dashPattern=8 4;metaEdit=1;rotatable=0;perimeter=rectanglePerimeter;noLabel=0;labelPadding=0;allowArrows=0;connectable=0;expand=0;recursiveResize=0;editable=1;pointerEvents=0;absoluteArcSize=1;points=[[0.25,0,0],[0.5,0,0],[0.75,0,0],[1,0.25,0],[1,0.5,0],[1,0.75,0],[0.75,1,0],[0.5,1,0],[0.25,1,0],[0,0.75,0],[0,0.5,0],[0,0.25,0]];" parent="1" vertex="1">
            <mxGeometry x="70" y="570" width="320" height="580" as="geometry" />
          </mxCell>
        </object>
        <mxCell id="fI5Uz8TSLdIrgGUn4hyG-38" value="GọiAPI&lt;br&gt;[API]" style="text;html=1;align=center;verticalAlign=middle;resizable=0;points=[];autosize=1;strokeColor=none;fillColor=none;" parent="1" vertex="1">
          <mxGeometry x="220" y="755" width="60" height="40" as="geometry" />
        </mxCell>
        <object placeholders="1" c4Name="Các hệ thống ngoài" c4Type="Software System" c4Description="Kubenetes, Kafka Server, Redis Server, Object Storage, VNPT SSO, VNPT Email .." label="&lt;font style=&quot;font-size: 16px&quot;&gt;&lt;b&gt;%c4Name%&lt;/b&gt;&lt;/font&gt;&lt;div&gt;[%c4Type%]&lt;/div&gt;&lt;br&gt;&lt;div&gt;&lt;font style=&quot;font-size: 11px&quot;&gt;&lt;font color=&quot;#cccccc&quot;&gt;%c4Description%&lt;/font&gt;&lt;/div&gt;" id="fI5Uz8TSLdIrgGUn4hyG-50">
          <mxCell style="rounded=1;whiteSpace=wrap;html=1;labelBackgroundColor=none;fillColor=#8C8496;fontColor=#ffffff;align=center;arcSize=10;strokeColor=#736782;metaEdit=1;resizable=0;points=[[0.25,0,0],[0.5,0,0],[0.75,0,0],[1,0.25,0],[1,0.5,0],[1,0.75,0],[0.75,1,0],[0.5,1,0],[0.25,1,0],[0,0.75,0],[0,0.5,0],[0,0.25,0]];" parent="1" vertex="1">
            <mxGeometry x="-310" y="795" width="240" height="120" as="geometry" />
          </mxCell>
        </object>
      </root>
    </mxGraphModel>
  </diagram>
</mxfile>
